<?xml version="1.0" encoding="UTF-8" standalone="no"?>
<!-- Created with Inkscape (http://www.inkscape.org/) -->

<svg
   xmlns:dc="http://purl.org/dc/elements/1.1/"
   xmlns:cc="http://creativecommons.org/ns#"
   xmlns:rdf="http://www.w3.org/1999/02/22-rdf-syntax-ns#"
   xmlns:svg="http://www.w3.org/2000/svg"
   xmlns="http://www.w3.org/2000/svg"
   xmlns:sodipodi="http://sodipodi.sourceforge.net/DTD/sodipodi-0.dtd"
   xmlns:inkscape="http://www.inkscape.org/namespaces/inkscape"
   id="svg3039"
   version="1.1"
   inkscape:version="0.48.0 r9654"
   width="481"
   height="251"
   sodipodi:docname="toronto-wards.svg"
   style="display:inline">
  <metadata
     id="metadata3045">
    <rdf:RDF>
      <cc:Work
         rdf:about="">
        <dc:format>image/svg+xml</dc:format>
        <dc:type
           rdf:resource="http://purl.org/dc/dcmitype/StillImage" />
        <dc:title></dc:title>
      </cc:Work>
    </rdf:RDF>
  </metadata>
  <defs
     id="defs3043" />
  <sodipodi:namedview
     pagecolor="#c6ecff"
     bordercolor="#666666"
     borderopacity="1"
     objecttolerance="10"
     gridtolerance="10"
     guidetolerance="10"
     inkscape:pageopacity="0"
     inkscape:pageshadow="2"
     inkscape:window-width="1214"
     inkscape:window-height="703"
     id="namedview3041"
     showgrid="false"
     inkscape:zoom="2"
     inkscape:cx="272.99669"
     inkscape:cy="164.99557"
     inkscape:window-x="0"
     inkscape:window-y="0"
     inkscape:window-maximized="1"
     inkscape:current-layer="backgrounds" />
  <g
     inkscape:groupmode="layer"
     id="backgrounds"
     inkscape:label="Backgrounds"
     style="display:inline">
    <path
       sodipodi:nodetypes="scccccsss"
       style="fill:#646464;fill-opacity:1;display:inline"
       d="m 0.793589,125.28357 0,-125.5000027 240.500001,0 240.5,0 0,45.0673877 -0.96393,45.067387 C 389.16912,269.63621 316.70854,238.299 52.889703,239.33925 c -23.099548,0.0911 -49.12824,11.44432 -50.451247,11.44432 -1.517753,0 -1.644868,-9.69863 -1.644867,-125.5 z"
       id="path4190"
       inkscape:connector-curvature="0" />
    <path
       inkscape:connector-curvature="0"
       id="path4308"
       d="m 19.099134,241.67591 c 7.68646,-5.00738 14.54659,-9.18816 15.24473,-9.29063 0.69815,-0.10246 2.50922,-1.33179 4.02462,-2.73184 3.85254,-3.5593 5.92204,-4.06241 9.37196,-2.27838 2.06998,1.07042 4.29713,1.35018 7.23799,0.90917 3.83784,-0.57552 4.35597,-0.39998 5.36666,1.81825 1.27758,2.80397 5.79854,4.35558 7.81495,2.68211 0.73974,-0.61393 1.48419,-2.32081 1.65434,-3.79306 0.2688,-2.32582 0.70642,-2.63721 3.33742,-2.37473 2.11918,0.21141 4.29269,-0.61401 7.24134,-2.75 2.31731,-1.67865 5.25391,-3.05209 6.52578,-3.05209 2.57156,0 8.1115,-5.26044 9.13903,-8.67794 8.499746,-3.9378 7.641676,-7.66009 14.139196,-16.8949 l 3.48508,-2.6582 c 4.15866,-3.17196 11.78535,-5.07648 16.66388,-4.16127 3.27237,0.6139 10.5323,6.47182 12.87956,10.39231 1.12811,1.88423 6.56784,5.73385 9.88363,6.99451 1.38294,0.52579 2.51444,1.56989 2.51444,2.32022 0,1.6863 4.19433,3.68527 7.7326,3.68527 1.45117,0 3.67823,-0.97677 4.94901,-2.17061 2.41906,-2.27259 4.43176,-1.87584 2.47074,0.48704 -0.87057,1.04897 -0.46339,2.61646 1.75969,6.77417 1.79853,3.36369 3.15463,7.76509 3.58591,11.63849 l 0.69357,6.22908 5.15424,1.60255 5.15424,1.60255 11.90641,-4.62491 c 3.96036,-1.53836 3.60135,-6.3079 0.40317,-6.70588 -10.30769,-1.28267 -12.44135,-7.23263 -13.26223,-9.24451 -0.12916,-0.31654 -5.40304,-8.71024 -3.84178,-9.43304 9.40831,-0.38166 23.20209,-5.23046 29.58511,-4.85864 7.26604,0.42325 3.74994,17.98135 8.67205,19.89482 2.11936,-2.11935 4.73241,-3.40122 8.54798,-4.19333 3.56397,-0.73988 5.85394,-1.81061 6.51531,-3.0464 1.17329,-2.19231 4.97398,-4.53301 4.97398,-3.06329 1.63044,6.09156 6.40269,0.21435 10.73353,-1.09163 -0.46241,-5.65922 -1.66793,-7.22267 -0.62531,-8.07456 2.22908,0.009 4.03216,0.73975 5.69783,-0.12161 2.56813,-1.32803 2.908,-1.28781 4.00847,0.47432 1.54654,2.47639 3.27053,2.43293 6.57419,-0.16573 1.88957,-1.48633 2.5793,-2.8601 2.38486,-4.75 -0.26443,-2.57008 -0.0899,-2.66514 5.22643,-2.84633 5.89586,-0.20094 16.60436,-1.60416 21.5,-2.81731 1.65,-0.40887 4.8,-2.42145 7,-4.4724 7.9007,-7.36541 20.39789,-15.99039 26.9974,-18.63235 6.54784,-2.62128 6.80023,-2.64589 9.68114,-0.94409 2.89685,1.7112 2.9699,1.70197 3.53164,-0.44615 0.48053,-1.83754 1.06385,-2.09544 3.5946,-1.58929 3.14454,0.6289 6.69522,-1.47065 6.69522,-3.95896 0,-0.68091 0.675,-1.49704 1.5,-1.81363 0.84376,-0.32378 1.5,-1.81214 1.5,-3.40201 0,-2.40512 1.71589,-4.19849 11.51159,-12.03139 6.33138,-5.06273 12.23976,-9.20497 13.12974,-9.20497 0.88998,0 7.89534,-3.15 15.56747,-7 l 13.94932,-7 11.43625,0 11.43626,0 6.73468,-4.83368 c 3.70408,-2.65852 9.65969,-6.54732 13.23469,-8.64179 3.575,-2.09446 9.875,-7.01017 14,-10.92381 8.39163,-7.96164 11.20975,-9.841202 13.46047,-8.97752 1.36838,0.5251 1.53953,9.52833 1.53953,80.98379 l 0,80.39301 -238.75,-0.0172 -238.7499926,-0.0173 13.9753866,-9.10432 z"
       style="fill:#c6ecff;fill-opacity:1"
       sodipodi:nodetypes="ccsssssssssccsssssssssscccssscscsscccssssssssssssssssscccsssssccccc" />
    <path
       inkscape:connector-curvature="0"
       id="path3105"
       d="m 0.793589,125.28357 0,-125.5000027 240.500001,0 240.5,0 0,45.0673877 0,45.067387 -2.25,-0.71152 c -3.98837,-1.261248 -6.54357,-3.463406 -7.22398,-6.225889 -0.3654,-1.483551 -2.05364,-4.141427 -3.75165,-5.90639 -2.68302,-2.788831 -2.90884,-3.424023 -1.72458,-4.850968 1.19832,-1.443893 0.67191,-2.305766 -4.36423,-7.145357 -3.1498,-3.026877 -6.28011,-6.468942 -6.95624,-7.649032 -0.8076,-1.409563 -1.57237,-11.236457 -2.22932,-28.645619 l -1,-26.4999997 -20.5,0.1455957 c -11.275,0.080078 -110.05,0.5300776 -219.5,1 l -199.000001,0.854404 0.09024,3.5 c 0.228561,8.864746 1.257445,17.846882 2.258603,19.717562 1.202235,2.246397 3.063001,20.199848 6.09913,58.846973 1.082992,13.785498 2.256399,26.861348 2.607571,29.057458 l 0.638493,3.99292 -10.55426,7.28856 c -5.804844,4.00871 -10.997761,7.82295 -11.539817,8.47608 -1.168943,1.40849 -0.826885,1.92788 4.629743,7.02988 3.532064,3.30252 4.42095,3.71043 5.725731,2.62756 1.259461,-1.04526 1.844256,-1.03316 3.168157,0.0656 1.310645,1.08774 1.510747,2.5559 1.038142,7.61692 -0.321998,3.4482 -1.095175,7.22188 -1.718171,8.38596 -0.98409,1.83879 -0.634426,2.62681 2.664806,6.00553 3.369286,3.45044 4.338482,3.889 8.594579,3.889 2.638378,0 4.797052,0.38228 4.797052,0.84952 0,0.46723 -1.34206,2.82973 -2.982355,5.25 -1.640296,2.42026 -3.273971,5.97548 -3.630391,7.90048 -0.356419,1.925 -1.085614,4.05184 -1.620432,4.72632 -0.678269,0.85538 0.01376,2.47143 2.287862,5.34272 2.868912,3.6223 3.278319,4.90028 3.410709,10.64665 0.1108,4.80926 0.588758,6.85074 1.813603,7.74637 1.293179,0.94559 1.717385,3.15571 1.906947,9.93522 0.148151,5.29848 0.997055,10.15886 0.354079,10.57927 -19.333797,12.64127 -29.572147,17.02345 -30.895154,17.02345 -1.517753,0 -1.644868,-9.69863 -1.644867,-125.5 z m 100.000001,83.55902 c -67.195727,28.10494 -33.597863,14.05247 0,0 z"
       style="fill:#f6e1b9;fill-opacity:1"
       sodipodi:nodetypes="scccccssssssscsscsssscsssssssssssssssssssscc" />
  </g>
  <g
     inkscape:groupmode="layer"
     id="wards"
     inkscape:label="Wards"
     style="display:inline">
    <path
       style="fill:#fefee9;fill-opacity:1;display:inline"
       d="m 353.79359,63.453821 0,-3.595202 9.25,-0.287526 9.25,-0.287526 0.29038,-9.465882 c 0.18859,-6.147477 0.76317,-10.003689 1.63902,-11 0.9335,-1.061877 1.56733,-6.344055 2.05907,-17.159628 l 0.71043,-15.62551 35.95339,-0.738316 c 19.77437,-0.406074 36.10168,-0.574594 36.28292,-0.37449 0.18124,0.200105 0.65541,11.276326 1.0537,24.613826 l 0.72417,24.25 -2.13792,0 c -1.17586,0 -2.39695,0.675 -2.71353,1.5 -0.47702,1.243095 -3.20189,1.5 -15.90977,1.5 l -15.33416,0 -0.83926,4.243844 c -0.83348,4.214632 -0.86658,4.241647 -4.80885,3.924863 -2.18327,-0.17544 -5.76959,-0.724169 -7.96959,-1.219398 -6.9137,-1.556303 -17.60041,-1.168416 -19.68083,0.71434 -1.44926,1.311563 -4.58753,1.762922 -14.82874,2.132728 l -12.99043,0.469079 z"
       id="ward42"
       inkscape:connector-curvature="0" />
    <path
       style="fill:#fefee9;fill-opacity:1;display:inline"
       d="m 130.66885,129.53357 c -0.65731,-1.2375 -4.75695,-7.34434 -9.11031,-13.57076 l -7.9152,-11.32076 0.69195,-9.76014 0.69196,-9.760129 -3.86683,-3.287449 c -3.38049,-2.873976 -3.5524,-3.211396 -1.36683,-2.682762 1.375,0.332578 9.9726,0.610832 19.10577,0.618342 l 16.60577,0.01365 -1.29647,7.455475 c -0.71306,4.100512 -1.77065,9.163003 -2.3502,11.249993 -0.57954,2.08699 -1.05892,6.26953 -1.06529,9.29453 -0.006,3.025 -0.30057,9.2125 -0.65379,13.75 -0.54699,7.02663 -0.90807,8.25 -2.43499,8.25 -0.98602,0 -2.07088,0.45 -2.4108,1 -1.06368,1.72107 -3.37903,1.09526 -4.62474,-1.24999 z"
       id="ward12"
       inkscape:connector-curvature="0" />
    <g
       id="ward30">
      <path
         inkscape:connector-curvature="0"
         id="path3262"
         d="m 219.79359,237.90601 c 0,-0.48265 0.69407,-1.45358 1.54238,-2.15761 1.15766,-0.96077 1.82773,-0.99472 2.68635,-0.1361 0.85862,0.85862 1.57094,0.75755 2.85574,-0.40517 1.57491,-1.42528 1.69993,-1.34429 1.56365,1.01294 -0.13437,2.3242 -0.54273,2.56215 -4.39812,2.56279 -2.3375,3.9e-4 -4.25,-0.39419 -4.25,-0.87685 z"
         style="fill:#fefee9;fill-opacity:1;display:inline" />
      <path
         inkscape:connector-curvature="0"
         id="path3258"
         d="m 238.32112,232.25294 c -0.47014,-1.08316 -0.89366,-2.39908 -0.94116,-2.92429 -0.0475,-0.5252 -1.21137,-1.30636 -2.58637,-1.7359 -1.90631,-0.59552 -1.61217,-0.68097 1.23863,-0.3598 2.98413,0.33619 4.04363,-0.0143 5.25,-1.7366 2.1062,-3.00704 1.91749,-0.23389 -0.32369,4.75659 -1.57851,3.51491 -1.88047,3.74389 -2.63741,2 z"
         style="fill:#fefee9;fill-opacity:1;display:inline" />
      <path
         inkscape:connector-curvature="0"
         d="m 219.79359,216.33928 c 0,-1.38506 1.02402,-2.99665 2.53187,-3.98463 2.99979,-1.96555 2.26346,-3.98751 -1.14096,-3.13306 -2.57246,0.64565 -3.10752,-0.32141 -1.22139,-2.20754 0.89268,-0.89268 0.61551,-1.37445 -1.17097,-2.03531 -2.72669,-1.00867 -2.28934,-1.34441 4.73969,-3.63848 6.14787,-2.00649 6.79279,-2.74328 5.06452,-5.78602 -0.70935,-1.24887 -1.55379,-7.22067 -1.87654,-13.27067 -0.32275,-6.05 -0.93633,-11.7875 -1.36351,-12.75 -0.72236,-1.62759 0.38491,-1.75 15.8303,-1.75 l 16.60699,0 0,5.5 0,5.5 -3.88646,0 c -3.83301,0 -3.89563,0.0612 -4.55372,4.44966 -0.47543,3.17042 -1.22681,4.62726 -2.61354,5.06739 -2.98205,0.94647 -2.71231,9.93018 0.46616,15.52599 2.752,4.84496 2.17748,7.66303 -1.95977,9.61287 -2.61904,1.23433 -3.22781,0.51923 -1.24553,-1.46305 0.94286,-0.94286 0.86441,-1.54988 -0.35833,-2.77262 -1.39756,-1.39756 -1.92925,-1.4066 -4.95714,-0.0843 -1.86542,0.81464 -4.69916,2.64732 -6.29721,4.07261 -1.59805,1.42529 -3.84805,2.59421 -5,2.5976 -1.15195,0.003 -3.33196,0.6517 -4.84446,1.4407 -2.62292,1.36824 -2.75,1.32706 -2.75,-0.89115 z"
         style="fill:#fefee9;fill-opacity:1;display:inline" />
    </g>
    <path
       style="fill:#fefee9;fill-opacity:1;display:inline"
       d="m 159.04359,208.12129 c -0.6875,-0.27741 -1.25,-1.16361 -1.25,-1.96933 0,-0.80571 -1.34693,-2.03128 -2.99319,-2.72348 -3.93918,-1.6563 -2.17005,-4.03767 1.86102,-2.50506 2.27099,0.86343 2.90958,0.62428 4.86806,-1.82303 1.41941,-1.7737 2.25602,-4.18366 2.25914,-6.5078 0.0961,-10.74516 0.15226,-10.33561 0.005,-21.10902 l 0,-15.7 2.9501,0 c 2.88998,0 2.9562,0.11717 3.25,5.75 0.2965,5.68475 0.33678,5.75356 3.5499,6.06336 l 3.25,0.31336 0,16.37914 0,16.37914 -4.24137,0.3075 c -3.32097,0.24077 -4.3199,0.74151 -4.60324,2.3075 -0.7831,4.32811 -4.78315,6.50108 -8.90539,4.83772 z"
       id="ward19"
       inkscape:connector-curvature="0"
       sodipodi:nodetypes="ssssscccssscccsss" />
    <path
       style="fill:#fefee9;fill-opacity:1;display:inline"
       d="m 171.84419,205.34458 c -1.0031,-1.20867 -0.50251,-1.48878 3.12756,-1.75 l 4.32184,-0.31101 0.27207,-18.75 c 0.26981,-18.59491 -0.67344,-23.81175 2.5,-18.88618 -4.99901,1.23123 3.87367,-1.33427 -7.08652,-0.86382 -1.92361,0 -2.18555,-0.53932 -2.18555,-4.5 l 0,-4.5 9.3471,0 9.3471,0 0.63258,18.75 c 0.34792,10.3125 0.93276,21.36732 1.29964,24.56626 l 0.66706,5.81626 -5.98254,-0.67685 c -4.57003,-0.51704 -6.71791,-0.29658 -9.09708,0.93374 -3.84527,1.98846 -5.62008,2.03098 -7.16323,0.1716 z"
       id="ward20"
       inkscape:connector-curvature="0"
       sodipodi:nodetypes="cscsccscccsscsscc" />
    <g
       id="ward28">
      <path
         inkscape:connector-curvature="0"
         id="path3260"
         d="m 182.09947,233.54182 c -2.96121,-0.94147 -3.24413,-1.4254 -3.88009,-6.63688 -0.37728,-3.09175 -1.765,-7.76872 -3.08382,-10.39326 l -2.39785,-4.77189 2.27794,-0.86735 c 2.97314,-1.13206 5.4243,0.99873 6.92997,6.02422 0.62412,2.08312 2.42859,5.02705 4.00993,6.54208 l 2.87517,2.75459 -2.26856,1.36419 c -1.79268,1.07801 -1.84902,1.21827 -0.26857,0.66858 2.26839,-0.78895 9.03872,-0.66709 11.92378,0.21462 1.46818,0.4487 0.57552,1.13647 -3.76928,2.90412 -7.86479,3.19975 -8.71746,3.35145 -12.34862,2.19698 z"
         style="fill:#fefee9;fill-opacity:1;display:inline" />
      <path
         inkscape:connector-curvature="0"
         id="path3236"
         d="m 196.79359,200.92314 c 0,-1.02323 -0.28595,-3.94669 -0.63545,-6.49657 l -0.63546,-4.63615 7.88546,0.24658 7.88545,0.24657 0.28234,-10.5 0.28235,-10.5 4.87775,-0.1478 c 5.94248,-0.18007 6.01632,-0.0253 6.98702,14.6478 0.38205,5.775 1.01903,11.20065 1.41551,12.057 0.56695,1.22452 -0.48222,1.93624 -4.91326,3.333 -3.09877,0.97681 -6.73441,1.49986 -8.07918,1.16234 l -2.44505,-0.61367 1.88229,-2.71933 c 2.56824,-3.71032 3.40731,-5.21934 2.90213,-5.21934 -0.23437,0 -1.55027,1.6987 -2.92423,3.77489 -1.95862,2.95967 -3.67998,4.14745 -7.97078,5.5 -6.77707,2.13628 -6.79689,2.13589 -6.79689,-0.13532 z"
         style="fill:#fefee9;fill-opacity:1;display:inline" />
    </g>
    <path
       style="fill:#fefee9;fill-opacity:1;display:inline"
       d="m 249.34694,200.84254 c -2.24058,-2.47582 -2.03663,-9.27605 0.32239,-10.74929 1.03166,-0.64428 2.17213,-2.75128 2.53437,-4.68223 0.59803,-3.18776 1.00054,-3.53918 4.37426,-3.81912 l 3.71563,-0.30833 0.29569,-6.75 0.29569,-6.75 14.98605,0 14.98604,0 -0.28173,11.75 -0.28174,11.75 -6,0.7531 c -3.3,0.4142 -8.4989,0.72824 -11.55312,0.69786 -4.91879,-0.0489 -5.70501,0.22859 -6.88287,2.42944 -0.73137,1.36657 -1.06366,3.17813 -0.73842,4.02569 0.33786,0.88044 -0.11054,1.93381 -1.04601,2.45733 -1.19695,0.66984 -2.11327,0.34073 -3.40671,-1.22356 l -1.76934,-2.13986 -3.99841,2.1377 c -3.76775,2.01437 -4.08802,2.03867 -5.55177,0.42126 z"
       id="ward32"
       inkscape:connector-curvature="0" />
    <path
       style="fill:#fefee9;fill-opacity:1;display:inline"
       d="m 140.84159,192.69351 -7.048,-7.09006 0,-16.90994 c 0,-10.38768 0.37836,-16.90994 0.98095,-16.90994 0.53952,0 1.25406,1.2375 1.58787,2.75 2.13576,9.67727 6.73295,21.16375 9.5419,23.84124 1.67836,1.59982 4.62878,5.72126 6.55649,9.15876 2.29589,4.09405 4.13284,6.25 5.32524,6.25 1.3032,0 1.67756,0.54586 1.31782,1.92153 -0.40322,1.54189 -1.13478,1.81893 -3.70277,1.4022 -2.20606,-0.35799 -3.61224,-0.023 -4.52633,1.07847 -0.72933,0.87879 -1.69936,1.5978 -2.15562,1.5978 -0.45626,0 -4.00116,-3.19053 -7.87755,-7.09006 z"
       id="ward14"
       inkscape:connector-curvature="0" />
    <path
       style="fill:#fefee9;fill-opacity:1;display:inline"
       d="m 158.64242,190.11328 c -0.90814,-0.24106 -2.24421,-1.87636 -2.96904,-3.634 -0.72484,-1.75764 -3.008,-5.03376 -5.0737,-7.28027 -2.42709,-2.63953 -5.00293,-7.31376 -7.28095,-13.2123 -4.12804,-10.68885 -4.42017,-12.75251 -1.59088,-11.23832 1.06384,0.56935 5.78884,1.03518 10.5,1.03518 l 8.56574,0 0,17.5 c 0,9.625 -0.1125,17.4478 -0.25,17.384 -0.1375,-0.0638 -0.99303,-0.31323 -1.90117,-0.55429 z"
       id="ward18"
       inkscape:connector-curvature="0" />
    <path
       style="fill:#fefee9;fill-opacity:1;display:inline"
       d="m 293.79359,180.39642 0,-9.38716 6.96803,-0.39373 c 8.63,-0.48763 9.48223,-1.08665 22.65918,-15.92662 5.56997,-6.27294 14.01619,-14.9347 18.76937,-19.24837 8.38122,-7.60623 8.84536,-7.87246 15.37279,-8.81794 13.68307,-1.98196 13.74618,-2.0075 13.5943,-5.49979 -0.11865,-2.72843 0.25396,-3.21277 2.875,-3.73697 1.65623,-0.33125 4.41758,-0.58805 6.13633,-0.57067 l 3.125,0.0316 -2.63905,2.325 c -1.45147,1.27875 -2.93985,3.69455 -3.3075,5.36844 -0.43978,2.0023 -2.70136,4.81162 -6.61095,8.21208 -4.91982,4.27913 -5.94391,5.71612 -5.95069,8.34995 -0.007,2.68544 -0.94215,3.92608 -6,7.95918 -4.2239,3.36812 -5.99181,5.46154 -5.99181,7.09501 0,3.37161 -5.27878,7.32152 -8.9481,6.69553 -0.79645,-0.13587 -2.01989,0.53492 -2.71874,1.49067 -1.00126,1.3693 -1.57235,1.48732 -2.6937,0.55668 -2.5123,-2.08502 -15.49387,3.93952 -26.46223,12.2807 -5.32247,4.04762 -10.76817,8.53926 -12.10154,9.98143 -1.33338,1.44217 -3.24588,2.62213 -4.25,2.62213 -1.63793,0 -1.82569,-0.96542 -1.82569,-9.38715 z"
       id="ward36"
       inkscape:connector-curvature="0" />
    <path
       style="fill:#fefee9;fill-opacity:1;display:inline"
       d="m 199.65788,187.06192 c -4.52592,-0.47983 -4.86429,-1.77954 -4.86429,-18.68418 l 0,-12.15584 4.23908,-1.46916 c 2.78006,-0.96351 4.36441,-2.15753 4.60324,-3.46917 0.20028,-1.1 1.1052,-2.83742 2.01092,-3.86093 0.90572,-1.02352 1.64676,-3.04852 1.64676,-4.5 0,-2.39081 0.40066,-2.66804 4.25915,-2.94701 3.36527,-0.24332 4.40348,0.0715 4.94684,1.5 0.37823,0.99436 1.75816,2.65489 3.06652,3.69004 2.14733,1.69895 2.31232,2.38015 1.69539,7 -0.37589,2.81485 -1.34581,5.86797 -2.15537,6.78471 -1.13674,1.28724 -1.22104,2.13562 -0.37021,3.72542 0.94737,1.77017 0.77261,2.14121 -1.24725,2.64817 -1.29194,0.32425 -3.66435,0.44781 -5.27203,0.27458 l -2.92304,-0.31498 -0.28275,11.25 -0.28275,11.25 -2.71725,-0.1681 c -1.49449,-0.0925 -4.35332,-0.34156 -6.35296,-0.55355 z"
       id="ward27"
       inkscape:connector-curvature="0" />
    <path
       style="fill:#fefee9;fill-opacity:1;display:inline"
       d="m 113.89408,182.72465 c -0.92908,-3.10102 -1.9345,-4.33586 -4.16272,-5.11262 -3.0227,-1.05372 -3.70374,-2.23703 -1.92146,-3.33854 1.45339,-0.89825 0.19604,-2.48992 -1.96692,-2.48992 -2.86962,0 -3.67192,-4.87566 -1.09886,-6.6779 3.20524,-2.24504 2.43698,-4.22707 -2.45053,-6.3221 -4.96519,-2.12833 -5.55601,-3.36447 -2.41222,-5.04698 1.63593,-0.87552 1.94318,-1.69354 1.41961,-3.77959 -0.88646,-3.53195 -2.38694,-5.21777 -6.007,-6.74901 l -3.00039,-1.26912 2.75,-1.0529 c 1.95471,-0.7484 3.54529,-0.73135 5.5,0.059 1.5125,0.61153 8.825,2.98194 16.25,5.26759 l 13.5,4.15572 0.27206,17.45767 0.27205,17.45766 -4.27205,0.003 c -2.34963,0.001 -5.88634,0.34566 -7.85934,0.76479 -3.53537,0.75104 -3.60501,0.7029 -4.81223,-3.32643 z"
       id="ward13"
       inkscape:connector-curvature="0" />
    <path
       style="fill:#fefee9;fill-opacity:1;display:inline"
       d="m 293.79359,146.78357 0,-21 27.25,0.0445 c 25.89878,0.0423 27.13849,0.1291 25.00114,1.75 -3.48641,2.64397 -20.18082,19.77528 -28.37391,29.11645 -7.97672,9.09449 -11.08494,10.88412 -19.12723,11.01293 l -4.75,0.0761 0,-21 z"
       id="ward35"
       inkscape:connector-curvature="0" />
    <path
       style="fill:#fefee9;fill-opacity:1;display:inline"
       d="m 222.38333,163.15682 c -0.34334,-0.89471 -0.21661,-2.13221 0.28162,-2.75 0.49822,-0.61779 1.22396,-4.04825 1.61274,-7.62325 0.6461,-5.94117 1.09376,-6.89818 5.20696,-11.13139 5.06083,-5.20848 6.90032,-5.36391 11.63349,-0.98296 2.54716,2.35761 3.5292,2.59798 10,2.44768 l 7.17545,-0.16668 0.0514,10.91668 0.0514,10.91667 -17.69438,0 c -15.41858,0 -17.77466,-0.20923 -18.31861,-1.62675 z"
       id="ward29"
       inkscape:connector-curvature="0" />
    <path
       style="fill:#fefee9;fill-opacity:1;display:inline"
       d="m 261.39317,158.96097 c -0.83253,-7.35859 0.20503,-16.86937 2.22351,-20.38168 1.31901,-2.29519 2.31978,-2.74902 6.61551,-3 4.38024,-0.25592 5.10441,-0.59852 5.38095,-2.54572 0.37144,-2.61537 1.42596,-2.86404 3.18045,-0.75 0.68469,0.825 1.93858,1.5 2.78643,1.5 0.84784,0 3.26774,0.7616 5.37755,1.69245 l 3.83602,1.69245 0,13.80755 0,13.80755 -14.37083,0 -14.37084,0 z"
       id="ward31"
       inkscape:connector-curvature="0" />
    <path
       style="fill:#fefee9;fill-opacity:1;display:inline"
       d="m 141.38494,150.54301 c -3.85548,-2.2287 -5.36379,-4.88264 -6.98775,-12.29527 -0.66899,-3.05359 -0.085,-3.56459 6.6464,-5.81607 1.3852,-0.46332 1.75,-1.73838 1.75,-6.11672 l 0,-5.53138 4.93261,0 c 5.4488,0 5.41862,-0.038 6.54429,8.24793 0.62661,4.61235 0.75814,4.76602 4.60623,5.38135 2.17866,0.34838 4.18866,1.00147 4.46667,1.45129 0.27801,0.44983 0.20816,4.38278 -0.15521,8.7399 l -0.66067,7.92203 -8.61696,0.13819 c -7.28426,0.11682 -9.22147,-0.21126 -12.52561,-2.12125 z"
       id="ward17"
       inkscape:connector-curvature="0" />
    <path
       style="fill:#fefee9;fill-opacity:1;display:inline"
       d="m 166.16767,144.03357 c 0.32253,-4.8125 0.86729,-13.34075 1.21058,-18.95166 0.34329,-5.61091 1.13967,-10.9056 1.76975,-11.76598 1.64508,-2.24637 10.64559,-1.02165 10.64559,1.44858 0,0.94 0.9,2.52357 2,3.51906 1.8446,1.66934 2,3.07997 2,18.15499 l 0,16.34501 -9.10616,0 -9.10616,0 z"
       id="ward21"
       inkscape:connector-curvature="0" />
    <path
       style="fill:#fefee9;fill-opacity:1;display:inline"
       d="m 186.79359,137.4074 0,-15.62383 8.87803,0 c 7.88803,0 9.03233,-0.23239 10.26177,-2.08403 1.27141,-1.91485 1.97132,-2.02612 8.62197,-1.37079 l 7.23823,0.71324 -0.003,8.62079 -0.003,8.62079 -8.23508,0.33819 c -4.5293,0.18601 -8.5779,0.55007 -8.99689,0.80902 -0.419,0.25895 -0.76181,1.5328 -0.76181,2.83077 0,2.46195 -2.5243,7.87078 -4.85501,10.40283 -0.74525,0.80963 -3.78275,1.67339 -6.75,1.91946 l -5.39521,0.44739 z"
       id="ward22"
       inkscape:connector-curvature="0" />
    <path
       style="fill:#fefee9;fill-opacity:1;display:inline"
       d="m 118.29359,143.12287 c -24.61758,-7.27127 -22.5,-6.3519 -22.5,-9.76862 0,-2.29596 0.99051,-3.86923 4.14829,-6.58891 l 4.14829,-3.57277 -1.63891,-4.9545 c -1.55248,-4.69322 -1.53615,-5.29273 0.30959,-11.36815 1.07167,-3.52751 1.71589,-6.79001 1.4316,-7.25 -0.28429,-0.45999 -1.62647,-0.83635 -2.98263,-0.83635 -1.77237,0 -2.75672,-0.7733 -3.50052,-2.75 -0.56913,-1.5125 -2.56102,-4.325003 -4.42642,-6.250003 -3.16567,-3.266809 -6.48929,-9.456582 -6.48929,-12.085369 0,-1.55023 15.12447,-0.219503 16.5,1.451752 0.55,0.668247 2.71812,2.510951 4.81805,4.094898 l 3.81805,2.879905 -0.69113,9.748427 -0.69113,9.74843 8.71795,12.64953 c 5.93362,8.60953 9.65756,15.22411 11.65994,20.71078 1.6181,4.43369 2.81291,8.17606 2.65513,8.31637 -0.15777,0.14031 -7.03686,-1.73863 -15.28686,-4.17542 z"
       id="ward11"
       inkscape:connector-curvature="0" />
    <path
       style="fill:#fefee9;fill-opacity:1;display:inline"
       d="m 160.12304,131.08825 c -1.83104,-0.3568 -2.30028,-1.3913 -3,-6.61382 l -0.82945,-6.19086 -6.25,-0.29772 -6.25,-0.29771 0.0425,-7.20229 c 0.025,-4.24372 1.16816,-11.92626 2.78286,-18.702283 l 2.7404,-11.5 16.21887,-0.5 16.21886,-0.5 -0.0104,2.5 c -0.006,1.375 -0.67759,8.125 -1.49303,15.000003 -0.81544,6.875 -1.48653,12.61643 -1.49131,12.75874 -0.005,0.1423 -2.37119,-0.0143 -5.25869,-0.3479 -4.99704,-0.5774 -5.3286,-0.46941 -6.8814,2.24127 -0.9385,1.63832 -1.93226,6.56423 -2.33977,11.59789 -0.3896,4.8125 -1.00547,8.68872 -1.3686,8.61382 -0.36313,-0.0749 -1.63698,-0.32651 -2.83078,-0.55914 z"
       id="ward15"
       inkscape:connector-curvature="0" />
    <path
       style="fill:#fefee9;fill-opacity:1;display:inline"
       d="m 116.30827,74.033567 c 0.25558,-1.5125 1.15465,-8.702585 1.99793,-15.977968 0.84329,-7.275382 1.77884,-13.867974 2.07901,-14.650205 0.66894,-1.743224 16.98911,-2.759126 19.59192,-1.219562 1.0141,0.599843 1.94603,2.904407 2.34368,5.795658 0.36308,2.639914 1.00258,5.011477 1.4211,5.27014 1.07442,0.664028 4.72052,-3.445602 5.96032,-6.718063 0.84607,-2.233217 1.66139,-2.75 4.33863,-2.75 3.18839,0 3.46864,0.345572 8.52475,10.512022 4.55157,9.151954 5.22798,11.286759 5.22798,16.5 l 0,5.987978 -25.975,0 -25.975,0 z"
       id="ward9"
       inkscape:connector-curvature="0" />
    <path
       style="fill:#fefee9;fill-opacity:1;display:inline"
       d="m 74.370881,47.864242 c -1.53829,-1.605629 -3.101644,-4.418129 -3.47412,-6.25 -0.770051,-3.787184 -2.632483,-4.428265 -9.759728,-3.359469 -3.602411,0.540215 -4.34375,1.024758 -4.345236,2.840067 -0.0016,1.976948 -0.547899,2.201773 -5.645797,2.32356 -4.05394,0.09685 -5.898656,0.589868 -6.547898,1.75 -1.431634,2.558187 -2.651137,1.89166 -2.991155,-1.634833 -0.30286,-3.141123 -0.447361,-3.238282 -4.313358,-2.900217 -2.2,0.192381 -4.359861,0.979881 -4.79969,1.75 -1.646569,2.883059 -3.70031,1.536879 -3.70031,-2.425469 0,-2.779543 -0.678166,-4.46279 -2.480014,-6.155538 -1.724631,-1.620207 -2.311624,-3.000774 -1.927169,-4.532567 0.436017,-1.737228 -0.17953,-2.634826 -2.912812,-4.247502 -3.072044,-1.812551 -3.540629,-2.652073 -4.125753,-7.391748 -0.363052,-2.940827 -0.897035,-6.584459 -1.186629,-8.096959 l -0.526534,-2.75 24.650884,0 c 21.954965,0 24.486191,0.164694 23.144964,1.50592 -2.866289,2.866289 -2.853226,5.275012 0.05454,10.056801 1.544688,2.540221 3.609399,5.968097 4.588247,7.617502 0.978848,1.649405 3.125855,4.131614 4.771127,5.516019 2.101462,1.768264 2.910743,3.263298 2.720276,5.025332 -0.168443,1.558292 0.415377,2.938128 1.541523,3.64333 1.482479,0.928341 2.149193,0.725264 3.660292,-1.114904 2.290649,-2.789479 4.619409,-2.880223 6.034999,-0.235163 0.85012,1.588456 0.74881,2.141275 -0.4787,2.612316 -0.85636,0.328614 -2.05418,2.571937 -2.66184,4.985163 -0.96301,3.824479 -1.45066,4.387684 -3.799025,4.387684 -1.671629,0 -3.755736,-1.108011 -5.491084,-2.919325 z"
       id="ward1"
       inkscape:connector-curvature="0" />
    <path
       style="fill:#fefee9;fill-opacity:1;display:inline"
       d="m 161.0344,44.256173 c -2.11758,-3.254924 -2.59726,-3.472606 -7.65218,-3.472606 -5.15661,0 -5.44877,0.142445 -6.6659,3.25 l -1.27292,3.25 -0.38917,-2.727668 c -0.21533,-1.509227 -1.58888,-3.577551 -3.07491,-4.630262 -2.34152,-1.658756 -3.94086,-1.836106 -12.47908,-1.383807 l -9.79334,0.518787 0.29334,-5.388525 0.29335,-5.388525 -5.09473,-0.296875 -5.09474,-0.296875 1.35879,-8.203125 c 0.74733,-4.511719 1.58604,-9.215625 1.86379,-10.453125 l 0.50499,-2.25 27.82482,0 27.82482,0 -2.80529,18.75 c -1.54291,10.3125 -2.93515,19.525173 -3.09387,20.472606 -0.21582,1.288274 -0.8582,0.847036 -2.54777,-1.75 z"
       id="ward8"
       inkscape:connector-curvature="0" />
    <g
       id="ward6">
      <path
         inkscape:connector-curvature="0"
         id="path4180"
         d="m 63.543589,230.09424 c -0.9625,-0.25152 -1.75,-0.83219 -1.75,-1.29037 0,-0.45819 0.9,-0.59771 2,-0.31005 1.1,0.28766 2,0.92053 2,1.40638 0,0.48585 -0.1125,0.83117 -0.25,0.76737 -0.1375,-0.0638 -1.0375,-0.3218 -2,-0.57333 z"
         style="fill:#fefee9;fill-opacity:1;display:inline" />
      <path
         inkscape:connector-curvature="0"
         id="path4540"
         d="m 36.353649,225.0103 c -0.308033,-0.30804 -0.56006,-3.18125 -0.56006,-6.38492 0,-4.46389 -0.408884,-6.08057 -1.75,-6.91929 -1.338372,-0.83701 -1.736813,-2.40131 -1.693939,-6.65051 0.05382,-5.33413 0.236798,-5.70862 4.580594,-9.37511 l 4.524532,-3.81905 33.670007,-0.28892 c 18.518507,-0.15891 33.669737,0.022 33.669407,0.40205 -3.3e-4,0.38004 -0.4506,0.9691 -1.0006,1.30902 -0.55,0.33992 -1,1.74303 -1,3.11803 0,1.375 -0.43528,2.23098 -0.96729,1.90218 -0.53201,-0.3288 -1.54026,0.31965 -2.24055,1.44099 -0.70029,1.12134 -2.2366,2.0388 -3.41402,2.0388 -2.32842,0 -6.60625,4.90501 -7.84919,9 -1.10583,3.64326 -4.53601,7 -7.15313,7 -1.25156,0 -4.273818,1.34861 -6.716136,2.99691 -3.479538,2.34831 -5.110223,2.86298 -7.534732,2.37808 -2.151731,-0.43035 -3.254421,-0.20097 -3.620346,0.75309 -0.67535,1.76081 -16.569756,1.60649 -21.088007,-0.20474 -2.55998,-1.02622 -3.610747,-0.97297 -6.18994,0.3137 -1.708597,0.85236 -3.358567,1.29772 -3.6666,0.98969 z"
         style="fill:#fefee9;fill-opacity:1;display:inline" />
    </g>
    <path
       style="fill:#fefee9;fill-opacity:1;display:inline"
       d="m 28.482639,193.43175 c -1.420713,-2.16828 -1.383594,-2.50919 0.475635,-4.36842 1.708988,-1.70899 1.82565,-2.32237 0.764788,-4.02108 -1.074855,-1.72112 -0.840282,-2.64362 1.659355,-6.52569 2.35105,-3.65132 3.680789,-4.6864 6.911172,-5.37972 l 4,-0.85851 0.283492,-10.71389 0.283492,-10.71389 10.673299,-0.28349 c 10.429637,-0.27702 10.689132,-0.34056 11.366828,-2.78349 0.599241,-2.16012 0.707081,-2.21518 0.793209,-0.40499 0.132809,2.7913 3.163779,5.40499 6.267906,5.40499 1.767582,0 2.881015,0.81266 3.76169,2.74553 l 1.250946,2.74552 2.159569,-2.51342 c 1.187763,-1.38238 3.05957,-3.73443 4.15957,-5.22676 1.73377,-2.35214 2.79388,-2.74911 7.96387,-2.9821 5.17906,-0.2334 6.01504,-0.0184 6.35274,1.63398 0.21388,1.04651 -0.33236,2.30637 -1.21387,2.79969 -3.54187,1.98213 -1.06873,8.14053 3.75538,9.35131 2.57194,0.64551 2.63675,0.79443 1.08978,2.50382 -1.25547,1.38728 -1.47956,2.79557 -0.94669,5.94959 0.38396,2.27265 1.28765,4.35833 2.0082,4.63483 0.72055,0.2765 1.58256,1.58831 1.91557,2.91514 0.37321,1.48699 1.58663,2.65866 3.16318,3.05435 2.08071,0.52223 5.29513,5.03239 4.18982,5.87875 -2.60985,1.99843 -10.53914,2.50977 -38.918551,2.50977 l -31.842124,0 -4.585249,3.5 c -2.521887,1.925 -4.949027,3.5 -5.393643,3.5 -0.444617,0 -1.501831,-1.05832 -2.349364,-2.35182 z"
       id="ward5"
       inkscape:connector-curvature="0" />
    <path
       style="fill:#fefee9;fill-opacity:1;display:inline"
       d="m 33.84015,168.33967 c -0.866774,-1.0444 -2.49157,-1.29333 -5.872445,-0.8997 -4.058512,0.47253 -4.975419,0.22088 -6.961825,-1.91069 -2.062357,-2.21307 -2.187897,-2.88786 -1.274446,-6.8503 1.824897,-7.91618 1.357812,-13.26903 -1.382482,-15.8434 -1.729011,-1.62432 -3.144217,-2.12103 -4.834461,-1.69681 -1.783743,0.44769 -3.056986,-0.0966 -5.020494,-2.14602 l -2.63067,-2.74583 5.150765,-3.48167 c 14.531252,-9.82245 16.779497,-11.84418 16.779497,-15.08891 l 0,-3.11136 11.25,0.63797 c 6.1875,0.35088 13.8375,0.89425 17,1.20748 l 5.75,0.56951 0,15.40182 0,15.40181 -11,0 -11,0 0,11 c 0,10.9156 -0.01824,11 -2.377555,11 -1.307656,0 -2.916803,-0.64975 -3.575884,-1.4439 z"
       id="ward3"
       inkscape:connector-curvature="0" />
    <path
       style="fill:#fefee9;fill-opacity:1;display:inline"
       d="m 77.396252,150.94968 c -0.396383,-0.64136 -2.225118,-1.16611 -4.063855,-1.16611 -2.818803,0 -3.507907,-0.4726 -4.39356,-3.01319 -0.577722,-1.65725 -1.746743,-3.28039 -2.597826,-3.60699 -1.293376,-0.49631 -1.547422,-2.86497 -1.547422,-14.42779 0,-7.85047 -0.419183,-14.09307 -0.969157,-14.43297 -0.533037,-0.32943 -5.595537,-0.87205 -11.25,-1.20581 -5.654464,-0.33376 -11.037131,-0.87828 -11.961483,-1.21004 -1.341059,-0.48133 -0.05923,-2.37119 6.343926,-9.35321 l 8.024567,-8.750003 14.872242,0 14.872246,0 0.28383,10.750003 0.28383,10.75 6.59516,0.29216 c 6.57937,0.29146 6.59773,0.30053 7.66858,3.78969 1.04342,3.39976 0.96388,3.57002 -2.84516,6.09073 -3.22016,2.131 -3.91858,3.1715 -3.91858,5.83786 0,1.78457 -0.675,3.80487 -1.5,4.48956 -0.86141,0.7149 -1.5,2.89568 -1.5,5.12244 0,3.76483 -0.10175,3.87756 -3.5,3.87756 -1.925,0 -3.50224,0.3375 -3.50497,0.75 -0.003,0.4125 -1.054974,2.06225 -2.338318,3.66611 -1.561547,1.95155 -2.571738,2.5304 -3.05405,1.75 z"
       id="ward4"
       inkscape:connector-curvature="0" />
    <path
       style="fill:#fefee9;fill-opacity:1;display:inline"
       d="m 220.99359,142.58357 c -1.77171,-1.77171 -1.47206,-2.62226 1.05,-2.98045 2.1634,-0.30725 2.26093,-0.75809 2.53409,-11.71306 0.23585,-9.45855 0.62059,-11.86607 2.26547,-14.17609 l 1.98137,-2.78258 7.73454,2.53112 c 4.96826,1.62587 8.52158,3.46083 9.93514,5.13058 l 2.20062,2.59945 5.79938,-2.40019 c 3.18967,-1.3201 8.44267,-3.97294 11.67335,-5.8952 5.64399,-3.35818 5.92783,-3.42134 7.25,-1.61317 1.93534,2.64674 1.73325,3.81538 -1.12396,6.49959 -2.8028,2.63309 -3.08692,5.60939 -1.07395,11.25 l 1.33827,3.75 -4.66655,0 c -4.09581,0 -4.87745,0.35701 -6.39085,2.919 -1.33602,2.26169 -2.85933,3.16242 -6.76483,4 -7.06379,1.51491 -7.45592,1.44676 -11.3504,-1.97264 -1.91284,-1.6795 -4.966,-3.28725 -6.7848,-3.57278 -2.94834,-0.46285 -3.84494,0.0309 -8.2693,4.55364 -5.41879,5.53932 -5.58391,5.62646 -7.33759,3.87278 z"
       id="ward26"
       inkscape:connector-curvature="0" />
    <path
       style="fill:#fefee9;fill-opacity:1;display:inline"
       d="m 367.79359,140.12935 c 0,-0.35981 2.64914,-3.05155 5.88698,-5.98162 3.31348,-2.99853 6.18337,-6.53761 6.56499,-8.09579 0.3729,-1.5226 2.75322,-4.8895 5.2896,-7.48199 5.59471,-5.7185 4.85857,-6.28937 -6.32053,-4.90148 -4.33946,0.53874 -8.0319,0.83757 -8.20542,0.66406 -0.17351,-0.17352 -0.0159,-2.57391 0.35028,-5.3342 l 0.66575,-5.01871 4.63418,0.15197 4.63417,0.15198 0.28275,-11.250003 0.28275,-11.25 4.40823,0 c 2.42453,0 4.68825,-0.453071 5.03049,-1.006824 0.8279,-1.339568 -3.25739,-6.993176 -5.05326,-6.993176 -1.60166,0 -2.96147,-4.227247 -2.09019,-6.497764 0.74513,-1.941771 10.32027,-2.015228 16.63923,-0.127649 l 4.5,1.344226 0.5,23.88169 0.5,23.88169 2.9175,0.50891 c 3.38399,0.59027 4.77054,3.0089 1.72495,3.0089 -1.11332,0 -7.78832,2.87443 -14.83334,6.38763 -7.04501,3.5132 -14.11469,6.68886 -15.7104,7.05703 -1.59572,0.36816 -4.79206,2.21873 -7.103,4.11236 -4.13609,3.38922 -5.49571,4.07915 -5.49571,2.78876 z"
       id="ward43"
       inkscape:connector-curvature="0" />
    <path
       style="fill:#fefee9;fill-opacity:1;display:inline"
       d="m 287.42928,132.26995 c -1.57537,-0.81751 -3.65777,-1.48638 -4.62755,-1.48638 -0.96979,0 -2.28681,-0.63085 -2.92671,-1.40189 -0.63991,-0.77103 -2.26315,-1.67789 -3.60722,-2.01523 -1.52054,-0.38163 -2.68703,-1.58264 -3.08771,-3.17909 -0.52929,-2.10883 0.11207,-3.33609 3.60143,-6.89149 3.93471,-4.00918 4.58568,-6.5123 1.6936,-6.5123 -0.66024,0 -1.7625,-0.9 -2.44946,-2 -1.69482,-2.71384 -5.43742,-2.52673 -10.25194,0.51254 l -3.98013,2.51255 0,-2.44019 c 0,-1.3421 0.47309,-5.8416 1.05132,-9.9989 0.9985,-7.178944 0.89678,-8.041182 -2.02461,-17.161157 -1.69177,-5.28134 -3.35397,-12.262478 -3.69378,-15.513641 -0.5699,-5.452531 -0.46247,-5.911205 1.38448,-5.911205 2.19835,0 31.25492,6.638998 31.90597,7.290043 0.22239,0.222389 0.2856,15.091978 0.14048,33.04353 l -0.26386,32.63919 z"
       id="ward34"
       inkscape:connector-curvature="0" />
    <path
       style="fill:#fefee9;fill-opacity:1;display:inline"
       d="m 293.79359,102.30613 0,-20.477446 18.25,-0.272558 18.25,-0.272559 0.2999,-5.75 0.29991,-5.75 5.45009,0 5.4501,0 0,26.500003 0,26.5 -24,0 -24,0 z"
       id="ward37"
       inkscape:connector-curvature="0" />
    <path
       style="fill:#fefee9;fill-opacity:1;display:inline"
       d="m 344.79359,96.28353 0,-26.500003 16,-0.166667 c 8.8,-0.09167 16.7377,-0.204166 17.63934,-0.25 1.1416,-0.05803 2.00002,1.337173 2.82727,4.595206 1.08043,4.255182 1.02258,4.721779 -0.63934,5.156381 -1.62388,0.424652 -1.82727,1.650926 -1.82727,11.016669 l 0,10.538834 -4.74085,0.30479 -4.74086,0.30479 -0.81305,5.5 c -0.44718,3.025 -0.6763,7.63287 -0.50915,10.23972 0.20854,3.25239 -0.114,4.89984 -1.02788,5.25 -0.73248,0.28065 -6.01998,0.51028 -11.75,0.51028 l -10.41821,0 z"
       id="ward38"
       inkscape:connector-curvature="0" />
    <path
       style="fill:#fefee9;fill-opacity:1;display:inline"
       d="m 414.95171,116.78353 c -1.2199,-1.65 -3.10452,-3 -4.18806,-3 -1.90172,0 -1.97006,-0.78066 -1.97006,-22.503809 l 0,-22.503806 3.2424,0.253806 c 3.07583,0.240768 3.29843,0.02263 4.3333,-4.246194 l 1.0909,-4.5 14.10458,-0.277078 c 10.08614,-0.198137 14.90577,-0.699631 16.91671,-1.760223 2.5578,-1.34902 2.90254,-1.323963 3.81211,0.277078 0.55,0.968123 3.37841,4.051579 6.28536,6.852124 4.95584,4.774446 5.21826,5.268373 4.20918,7.922449 -1.26768,3.334262 -0.55695,5.915446 1.41993,5.156843 1.79545,-0.688978 3.81949,1.75206 5.78402,6.975662 l 1.55959,4.146854 -6.62904,6.460254 c -3.64597,3.55315 -9.55404,8.17441 -13.12904,10.26947 -3.575,2.09507 -9.53061,5.98437 -13.23469,8.64289 -6.58423,4.7257 -6.89837,4.83368 -14.06194,4.83368 -6.98184,0 -7.43181,-0.14142 -9.54525,-3 z"
       id="ward44"
       inkscape:connector-curvature="0" />
    <path
       style="fill:#fefee9;fill-opacity:1;display:inline"
       d="m 184.87402,117.38049 c -2.75876,-3.32411 -2.95175,-7.72945 -1.06252,-24.25353 1.04331,-9.125367 2.0286,-16.713441 2.18951,-16.862388 0.16092,-0.148946 3.11304,-1.452163 6.56027,-2.896036 3.44723,-1.443873 8.447,-3.966167 11.1106,-5.605097 2.6636,-1.638929 5.04329,-2.979872 5.28819,-2.979872 0.30926,0 -5.3915,50.093343 -6.11689,53.750003 -0.0273,0.1375 -3.81949,0.25 -8.42715,0.25 -5.96957,0 -8.71225,-0.40329 -9.54201,-1.40308 z"
       id="ward16"
       inkscape:connector-curvature="0" />
    <path
       style="fill:#fefee9;fill-opacity:1;display:inline"
       d="m 248.79359,115.74803 c 0,-2.16016 -17.73727,-8.4982 -21.28834,-7.60694 -1.36024,0.3414 -3.02381,2.07386 -4.04233,4.20972 l -1.73082,3.62957 -7.21926,-0.71049 c -3.97059,-0.39076 -7.274,-0.77254 -7.34092,-0.8484 -0.0669,-0.0759 1.18243,-11.38109 2.77634,-25.122737 l 2.89801,-24.984814 3.67661,-3.765186 3.67661,-3.765186 12.11891,0 c 8.46678,0 13.52871,0.480366 16.79705,1.594002 4.59764,1.566573 4.67814,1.667935 4.67814,5.890524 0,4.303876 4.20651,22.164316 6.01686,25.546971 0.62149,1.161275 0.59602,4.755636 -0.0718,10.134026 -1.51287,12.18391 -1.60759,12.43782 -5.49547,14.73173 -3.94807,2.32941 -5.44959,2.62346 -5.44959,1.06721 z"
       id="ward25"
       inkscape:connector-curvature="0" />
    <path
       style="fill:#fefee9;fill-opacity:1;display:inline"
       d="M 87.57742,102.03357 87.29359,91.283567 70.148212,91.010402 53.002836,90.737237 43.244559,101.26041 c -8.646002,9.3237 -10.139703,10.52316 -13.104624,10.52316 -1.84049,0 -3.34803,-0.1125 -3.350089,-0.25 -0.01951,-1.30295 -4.165075,-52.418495 -5.109157,-62.996789 -0.674773,-7.560733 -0.928173,-14.045474 -0.563111,-14.410536 0.365062,-0.365062 1.544727,0.133524 2.621476,1.107969 1.355137,1.226381 2.049577,3.353453 2.256131,6.910536 0.289068,4.978041 0.38824,5.132407 3.169814,4.93393 1.579276,-0.112688 3.639709,-0.900188 4.578741,-1.75 2.811988,-2.544814 5.049849,-1.948117 5.049849,1.346479 0,2.315042 0.544101,3.028153 2.728853,3.57649 2.103463,0.527936 3.123674,0.197315 4.451634,-1.442647 1.66406,-2.055027 5.779669,-2.72538 11.319513,-1.843729 1.536304,0.244498 2.073362,-0.319287 2.316422,-2.431706 0.218165,-1.896051 0.891453,-2.75 2.168213,-2.75 1.018484,0 2.55734,-0.270745 3.419679,-0.601655 1.091342,-0.418788 1.894151,0.265081 2.641325,2.25 0.59039,1.56841 2.712971,4.539155 4.716847,6.601655 3.219143,3.313321 4.206112,3.75 8.475645,3.75 2.78822,0 5.88759,0.691492 7.32718,1.634749 2.47355,1.620734 2.47754,1.646939 0.46481,3.056704 -1.11656,0.782075 -2.03012,2.114471 -2.03012,2.96088 0,0.84641 -0.94579,2.867159 -2.10175,4.490555 -1.83431,2.576052 -1.94607,3.327463 -0.8783,5.905274 0.93677,2.261567 0.94891,3.28443 0.0518,4.365365 -0.9031,1.088165 -0.8359,2.215222 0.2932,4.917535 0.80565,1.928198 1.24522,3.72542 0.97681,3.993826 -0.26841,0.268407 1.73992,2.692621 4.46295,5.387143 2.93587,2.905136 5.23652,6.199292 5.65257,8.093552 0.5446,2.47957 1.22384,3.19442 3.03529,3.19442 2.09363,0 2.24268,0.28287 1.44902,2.75 -0.48656,1.5125 -1.13105,3.9875 -1.43219,5.5 -0.50883,2.55563 -0.89719,2.75 -5.49464,2.75 l -4.94712,0 z"
       id="ward2"
       inkscape:connector-curvature="0" />
    <path
       style="fill:#fefee9;fill-opacity:1;display:inline"
       d="m 293.79359,62.423138 c 0,-8.998236 -0.28617,-18.448236 -0.63592,-21 l -0.63593,-4.639571 11.13593,0 11.13592,0 0,6.565741 c 0,8.047623 1.12131,10.434259 4.9023,10.434259 2.19353,0 3.42546,0.896885 5.46481,3.97856 2.32661,3.515742 2.63289,4.96984 2.63289,12.5 l 0,8.52144 -17,0 -17,0 z"
       id="ward40"
       inkscape:connector-curvature="0" />
    <path
       style="fill:#fefee9;fill-opacity:1;display:inline"
       d="m 108.79359,75.724084 c -1.925,-0.40292 -7.38155,-1.040103 -12.12567,-1.415962 -7.72441,-0.611976 -8.73633,-0.926265 -9.68482,-3.007967 -0.86183,-1.891515 -0.69869,-2.650796 0.87567,-4.075575 1.06415,-0.963043 1.93482,-2.697998 1.93482,-3.855454 0,-1.157456 0.9,-2.666525 2,-3.353486 3.0409,-1.899076 2.40918,-4.540629 -1.8525,-7.746281 -4.22665,-3.179294 -4.43434,-5.25626 -0.91508,-9.150716 2.14552,-2.374256 1.76829,-5.427733 -1.06929,-8.655359 -1.22192,-1.389869 -2.40917,-1.668541 -5.02107,-1.178546 -3.067606,0.575487 -3.870916,0.199928 -7.781403,-3.637925 -2.398362,-2.353814 -4.360658,-5.108273 -4.360658,-6.12102 0,-1.012747 -1.527586,-3.414263 -3.394636,-5.336703 -3.923961,-4.040373 -3.818439,-6.405549 0.420443,-9.423899 2.550676,-1.816242 4.447501,-1.981624 22.727934,-1.981624 l 19.94501,0 -1.84511,10.75 c -1.01481,5.9125 -1.63615,11.3125 -1.38076,12 0.2833,0.762626 2.34162,1.25 5.2791,1.25 l 4.81475,0 -0.28835,6.75 c -0.31104,7.280813 -3.85567,38.212376 -4.42965,38.654491 -0.1918,0.147734 -1.92373,-0.06105 -3.84873,-0.463974 z"
       id="ward7"
       inkscape:connector-curvature="0" />
    <path
       style="fill:#fefee9;fill-opacity:1;display:inline"
       d="m 170.79359,69.750323 c 0,-5.466857 -0.54148,-8.101799 -2.4313,-11.831174 l -2.43129,-4.79793 2.95281,-20.918826 c 1.62405,-11.505354 3.17671,-21.931326 3.45035,-23.168826 0.48351,-2.186574 0.84936,-2.25 12.97848,-2.25 l 12.48095,0 0,5.5 0,5.5 -3.86408,0 c -3.7989,0 -3.87408,0.073 -4.45734,4.328361 -0.3263,2.380599 -0.88543,9.018099 -1.24252,14.75 l -0.64924,10.421639 3.08677,3.108362 c 2.03807,2.05233 3.45407,4.820999 4.16788,8.149396 0.79568,3.710135 1.61952,5.181831 3.12043,5.57433 1.24247,0.324913 1.75577,0.992108 1.31364,1.707494 -1.30772,2.115924 -21.54548,10.960418 -25.07937,10.960418 l -3.39617,0 z"
       id="ward10"
       inkscape:connector-curvature="0" />
    <path
       style="fill:#fefee9;fill-opacity:1;display:inline"
       d="M 330.30072,37.232699 C 329.89442,20.979722 329.7266,7.527983 329.92779,7.339945 330.12898,7.151908 340.1267,6.668261 352.14494,6.265175 l 21.85134,-0.732884 -0.73272,15.375638 c -0.49219,10.328187 -1.18201,16.023164 -2.10135,17.348144 -0.88907,1.28136 -1.36862,4.872859 -1.36862,10.25 l 0,8.277494 -9.5,0 -9.5,0 0,5 0,5 -9.87707,0 -9.87707,0 z"
       id="ward41"
       inkscape:connector-curvature="0" />
    <path
       style="fill:#fefee9;fill-opacity:1;display:inline"
       d="m 272.79359,60.364474 c -12.45055,-2.929717 -13.47632,-3.344095 -13.19532,-5.330514 0.16758,-1.184619 -0.35372,-3.188074 -1.15842,-4.452123 -0.80471,-1.264048 -1.9973,-4.939139 -2.6502,-8.166868 -0.87567,-4.329021 -1.68672,-5.999253 -3.09158,-6.366632 -1.3208,-0.345397 -1.90448,-1.38756 -1.90448,-3.400453 0,-2.605782 0.25859,-2.83752 2.53011,-2.267405 3.83895,0.963517 19.34258,1.009916 24.83648,0.07433 4.11836,-0.701336 5.03612,-1.277894 5.96924,-3.75 0.7746,-2.052141 1.7812,-2.921242 3.38341,-2.921242 2.13459,0 2.28076,0.406437 2.28076,6.341888 0,3.488039 0.29476,12.488039 0.65503,20 l 0.65503,13.658112 -2.40503,-0.121216 c -1.32277,-0.06667 -8.48003,-1.550713 -15.90503,-3.297877 z"
       id="ward33"
       inkscape:connector-curvature="0" />
    <path
       style="fill:#fefee9;fill-opacity:1;display:inline"
       d="m 200.18491,60.804683 c -1.44058,-0.582135 -2.3051,-2.080449 -2.72863,-4.729045 -0.3976,-2.486456 -1.72971,-4.937677 -3.71421,-6.834502 -3.38723,-3.237591 -3.33499,-2.346361 -1.32779,-22.652677 l 0.56294,-5.695109 3.65819,-0.304891 3.65818,-0.304892 0.29569,-6.75 0.29569,-6.75 7.97336,0 c 7.75003,0 7.95937,0.06302 7.47379,2.25 -1.20302,5.418206 -2.58386,18.867645 -2.02925,19.765022 0.33569,0.543155 5.21426,0.984978 10.87604,0.984978 l 10.26729,0 -1.75813,11.75 c -0.96696,6.4625 -1.7888,11.8625 -1.8263,12 -0.0375,0.1375 -2.90185,0.25 -6.36523,0.25 -6.02891,0 -6.46337,0.170328 -10.20295,4 -3.45792,3.54123 -4.42741,3.99273 -8.45295,3.936614 -2.50088,-0.03486 -5.49596,-0.446837 -6.65573,-0.915498 z"
       id="ward23"
       inkscape:connector-curvature="0" />
    <path
       style="fill:#fefee9;fill-opacity:1;display:inline"
       d="m 250.29359,55.255565 c -2.2,-0.725062 -6.51204,-1.352878 -9.58232,-1.395146 l -5.58232,-0.07685 1.80982,-12.25 c 0.9954,-6.7375 1.60906,-12.8125 1.3637,-13.5 -0.31813,-0.891392 -3.43295,-1.25 -10.85736,-1.25 l -10.41124,0 1.39961,-7.75 c 0.76979,-4.2625 1.6243,-8.7625 1.89892,-10 l 0.49929,-2.25 34.48095,0 34.48095,0 0,7 c 0,6.736867 -0.0909,7 -2.41821,7 -3.74016,0 -5.58179,1.033274 -5.58179,3.13174 0,3.727786 -6.43892,4.481624 -30,3.512259 l -3.5,-0.143999 -0.30265,5.261182 c -0.24881,4.325337 0.018,5.379626 1.5,5.927059 2.55447,0.943589 3.2689,2.312568 3.29393,6.311759 0.012,1.925 0.88013,4.801827 1.92907,6.392948 1.04894,1.591121 1.67283,3.503621 1.38642,4.25 -0.6008,1.565678 -0.53124,1.567726 -5.80677,-0.170952 z"
       id="ward24"
       inkscape:connector-curvature="0" />
    <path
       style="fill:#fefee9;fill-opacity:1;display:inline"
       d="m 325.35017,52.846089 c -0.97047,-1.072357 -2.95521,-2.087616 -4.41053,-2.256131 -2.56674,-0.297207 -2.66104,-0.54618 -3.14605,-8.306391 l -0.5,-8 -12.25,-0.280779 -12.25,-0.280779 0,-13.469221 0,-13.469221 16.84038,0 16.84038,0 0.66637,23.659915 c 0.36651,13.012954 0.51058,23.815713 0.32016,24.006131 -0.19042,0.190419 -1.14024,-0.531167 -2.11071,-1.603524 z"
       id="ward39"
       inkscape:connector-curvature="0" />
  </g>
</svg>
